<?xml version="1.0" encoding="iso-8859-1"?>
<!-- Generator: Adobe Illustrator 18.0.0, SVG Export Plug-In . SVG Version: 6.00 Build 0)  -->
<!DOCTYPE svg PUBLIC "-//W3C//DTD SVG 1.1//EN" "http://www.w3.org/Graphics/SVG/1.1/DTD/svg11.dtd">
<svg xmlns="http://www.w3.org/2000/svg" xmlns:xlink="http://www.w3.org/1999/xlink" version="1.1" id="Capa_1" x="0px" y="0px" viewBox="0 0 300.396 300.396" style="enable-background:new 0 0 300.396 300.396;" xml:space="preserve" width="512px" height="512px">
<g>
	<path d="M4.076,83.647h59.972c1.656,0,3-1.344,3-3V20.675c0-1.658-1.344-3-3-3H4.076c-1.657,0-3,1.342-3,3v59.973   C1.076,82.304,2.419,83.647,4.076,83.647z" fill="#ff4081"/>
	<path d="M4.076,182.647h59.972c1.656,0,3-1.344,3-3v-59.973c0-1.658-1.344-3-3-3H4.076c-1.657,0-3,1.342-3,3v59.973   C1.076,181.304,2.419,182.647,4.076,182.647z" fill="#ff4081"/>
	<path d="M64.048,214.599H4.076c-2.251,0-4.076,1.824-4.076,4.076v59.973c0,2.25,1.825,4.074,4.076,4.074h59.972   c2.251,0,4.075-1.824,4.075-4.074v-59.973C68.123,216.423,66.299,214.599,64.048,214.599z M19.138,263.587v-29.852h29.849v29.852   H19.138z" fill="#ff4081"/>
	<path d="M297.396,31.96h-186.67c-1.657,0-3,1.344-3,3v31.4c0,1.658,1.343,3,3,3h186.67c1.656,0,3-1.342,3-3v-31.4   C300.396,33.304,299.053,31.96,297.396,31.96z" fill="#ff4081"/>
	<path d="M297.395,130.958H110.729c-1.657,0-3,1.342-3,3v31.406c0,1.656,1.343,3,3,3h186.667c1.656,0,3-1.344,3-3v-31.406   C300.395,132.3,299.052,130.958,297.395,130.958z" fill="#ff4081"/>
	<path d="M297.395,229.958H110.729c-1.657,0-3,1.342-3,3v31.406c0,1.656,1.343,3,3,3h186.667c1.656,0,3-1.344,3-3v-31.406   C300.395,231.3,299.052,229.958,297.395,229.958z" fill="#ff4081"/>
</g>
<g>
</g>
<g>
</g>
<g>
</g>
<g>
</g>
<g>
</g>
<g>
</g>
<g>
</g>
<g>
</g>
<g>
</g>
<g>
</g>
<g>
</g>
<g>
</g>
<g>
</g>
<g>
</g>
<g>
</g>
</svg>
